<?xml version="1.0" encoding="UTF-8"?>
<svg xmlns="http://www.w3.org/2000/svg" viewBox="0 0 1100 380" width="1100" height="380" font-family="'Helvetica Neue', Helvetica, Arial, sans-serif" style="background:#ffffff">
<text x="550.0" y="40" font-size="24" font-weight="600" text-anchor="middle" fill="#1e1e1e">Switchback timeline with washout periods</text>
<rect x="90" y="110" width="140" height="100" fill="#a5d8ff" stroke="#1971c2" stroke-width="2"/>
<rect x="90" y="110" width="22" height="100" fill="#cccccc" stroke="#888" stroke-width="1" opacity="0.7"/>
<line x1="-10" y1="110" x2="90" y2="210" stroke="#888" stroke-width="0.5" clip-path="inset(0 118px 0 0)" opacity="0.5"/>
<line x1="-4" y1="110" x2="96" y2="210" stroke="#888" stroke-width="0.5" clip-path="inset(0 118px 0 0)" opacity="0.5"/>
<line x1="2" y1="110" x2="102" y2="210" stroke="#888" stroke-width="0.5" clip-path="inset(0 118px 0 0)" opacity="0.5"/>
<line x1="8" y1="110" x2="108" y2="210" stroke="#888" stroke-width="0.5" clip-path="inset(0 118px 0 0)" opacity="0.5"/>
<line x1="14" y1="110" x2="114" y2="210" stroke="#888" stroke-width="0.5" clip-path="inset(0 118px 0 0)" opacity="0.5"/>
<line x1="20" y1="110" x2="120" y2="210" stroke="#888" stroke-width="0.5" clip-path="inset(0 118px 0 0)" opacity="0.5"/>
<line x1="26" y1="110" x2="126" y2="210" stroke="#888" stroke-width="0.5" clip-path="inset(0 118px 0 0)" opacity="0.5"/>
<line x1="32" y1="110" x2="132" y2="210" stroke="#888" stroke-width="0.5" clip-path="inset(0 118px 0 0)" opacity="0.5"/>
<line x1="38" y1="110" x2="138" y2="210" stroke="#888" stroke-width="0.5" clip-path="inset(0 118px 0 0)" opacity="0.5"/>
<line x1="44" y1="110" x2="144" y2="210" stroke="#888" stroke-width="0.5" clip-path="inset(0 118px 0 0)" opacity="0.5"/>
<line x1="50" y1="110" x2="150" y2="210" stroke="#888" stroke-width="0.5" clip-path="inset(0 118px 0 0)" opacity="0.5"/>
<line x1="56" y1="110" x2="156" y2="210" stroke="#888" stroke-width="0.5" clip-path="inset(0 118px 0 0)" opacity="0.5"/>
<line x1="62" y1="110" x2="162" y2="210" stroke="#888" stroke-width="0.5" clip-path="inset(0 118px 0 0)" opacity="0.5"/>
<line x1="68" y1="110" x2="168" y2="210" stroke="#888" stroke-width="0.5" clip-path="inset(0 118px 0 0)" opacity="0.5"/>
<line x1="74" y1="110" x2="174" y2="210" stroke="#888" stroke-width="0.5" clip-path="inset(0 118px 0 0)" opacity="0.5"/>
<line x1="80" y1="110" x2="180" y2="210" stroke="#888" stroke-width="0.5" clip-path="inset(0 118px 0 0)" opacity="0.5"/>
<line x1="86" y1="110" x2="186" y2="210" stroke="#888" stroke-width="0.5" clip-path="inset(0 118px 0 0)" opacity="0.5"/>
<line x1="92" y1="110" x2="192" y2="210" stroke="#888" stroke-width="0.5" clip-path="inset(0 118px 0 0)" opacity="0.5"/>
<line x1="98" y1="110" x2="198" y2="210" stroke="#888" stroke-width="0.5" clip-path="inset(0 118px 0 0)" opacity="0.5"/>
<line x1="104" y1="110" x2="204" y2="210" stroke="#888" stroke-width="0.5" clip-path="inset(0 118px 0 0)" opacity="0.5"/>
<line x1="110" y1="110" x2="210" y2="210" stroke="#888" stroke-width="0.5" clip-path="inset(0 118px 0 0)" opacity="0.5"/>
<line x1="116" y1="110" x2="216" y2="210" stroke="#888" stroke-width="0.5" clip-path="inset(0 118px 0 0)" opacity="0.5"/>
<line x1="122" y1="110" x2="222" y2="210" stroke="#888" stroke-width="0.5" clip-path="inset(0 118px 0 0)" opacity="0.5"/>
<line x1="128" y1="110" x2="228" y2="210" stroke="#888" stroke-width="0.5" clip-path="inset(0 118px 0 0)" opacity="0.5"/>
<line x1="134" y1="110" x2="234" y2="210" stroke="#888" stroke-width="0.5" clip-path="inset(0 118px 0 0)" opacity="0.5"/>
<line x1="140" y1="110" x2="240" y2="210" stroke="#888" stroke-width="0.5" clip-path="inset(0 118px 0 0)" opacity="0.5"/>
<line x1="146" y1="110" x2="246" y2="210" stroke="#888" stroke-width="0.5" clip-path="inset(0 118px 0 0)" opacity="0.5"/>
<line x1="152" y1="110" x2="252" y2="210" stroke="#888" stroke-width="0.5" clip-path="inset(0 118px 0 0)" opacity="0.5"/>
<line x1="158" y1="110" x2="258" y2="210" stroke="#888" stroke-width="0.5" clip-path="inset(0 118px 0 0)" opacity="0.5"/>
<line x1="164" y1="110" x2="264" y2="210" stroke="#888" stroke-width="0.5" clip-path="inset(0 118px 0 0)" opacity="0.5"/>
<line x1="170" y1="110" x2="270" y2="210" stroke="#888" stroke-width="0.5" clip-path="inset(0 118px 0 0)" opacity="0.5"/>
<line x1="176" y1="110" x2="276" y2="210" stroke="#888" stroke-width="0.5" clip-path="inset(0 118px 0 0)" opacity="0.5"/>
<line x1="182" y1="110" x2="282" y2="210" stroke="#888" stroke-width="0.5" clip-path="inset(0 118px 0 0)" opacity="0.5"/>
<line x1="188" y1="110" x2="288" y2="210" stroke="#888" stroke-width="0.5" clip-path="inset(0 118px 0 0)" opacity="0.5"/>
<line x1="194" y1="110" x2="294" y2="210" stroke="#888" stroke-width="0.5" clip-path="inset(0 118px 0 0)" opacity="0.5"/>
<line x1="200" y1="110" x2="300" y2="210" stroke="#888" stroke-width="0.5" clip-path="inset(0 118px 0 0)" opacity="0.5"/>
<line x1="206" y1="110" x2="306" y2="210" stroke="#888" stroke-width="0.5" clip-path="inset(0 118px 0 0)" opacity="0.5"/>
<text x="171.0" y="170.0" font-size="32" font-weight="700" text-anchor="middle" fill="#0b3d70">T1</text>
<rect x="230" y="110" width="140" height="100" fill="#ffc9c9" stroke="#c92a2a" stroke-width="2"/>
<rect x="230" y="110" width="22" height="100" fill="#cccccc" stroke="#888" stroke-width="1" opacity="0.7"/>
<line x1="130" y1="110" x2="230" y2="210" stroke="#888" stroke-width="0.5" clip-path="inset(0 118px 0 0)" opacity="0.5"/>
<line x1="136" y1="110" x2="236" y2="210" stroke="#888" stroke-width="0.5" clip-path="inset(0 118px 0 0)" opacity="0.5"/>
<line x1="142" y1="110" x2="242" y2="210" stroke="#888" stroke-width="0.5" clip-path="inset(0 118px 0 0)" opacity="0.5"/>
<line x1="148" y1="110" x2="248" y2="210" stroke="#888" stroke-width="0.5" clip-path="inset(0 118px 0 0)" opacity="0.5"/>
<line x1="154" y1="110" x2="254" y2="210" stroke="#888" stroke-width="0.5" clip-path="inset(0 118px 0 0)" opacity="0.5"/>
<line x1="160" y1="110" x2="260" y2="210" stroke="#888" stroke-width="0.5" clip-path="inset(0 118px 0 0)" opacity="0.5"/>
<line x1="166" y1="110" x2="266" y2="210" stroke="#888" stroke-width="0.5" clip-path="inset(0 118px 0 0)" opacity="0.5"/>
<line x1="172" y1="110" x2="272" y2="210" stroke="#888" stroke-width="0.5" clip-path="inset(0 118px 0 0)" opacity="0.5"/>
<line x1="178" y1="110" x2="278" y2="210" stroke="#888" stroke-width="0.5" clip-path="inset(0 118px 0 0)" opacity="0.5"/>
<line x1="184" y1="110" x2="284" y2="210" stroke="#888" stroke-width="0.5" clip-path="inset(0 118px 0 0)" opacity="0.5"/>
<line x1="190" y1="110" x2="290" y2="210" stroke="#888" stroke-width="0.5" clip-path="inset(0 118px 0 0)" opacity="0.5"/>
<line x1="196" y1="110" x2="296" y2="210" stroke="#888" stroke-width="0.5" clip-path="inset(0 118px 0 0)" opacity="0.5"/>
<line x1="202" y1="110" x2="302" y2="210" stroke="#888" stroke-width="0.5" clip-path="inset(0 118px 0 0)" opacity="0.5"/>
<line x1="208" y1="110" x2="308" y2="210" stroke="#888" stroke-width="0.5" clip-path="inset(0 118px 0 0)" opacity="0.5"/>
<line x1="214" y1="110" x2="314" y2="210" stroke="#888" stroke-width="0.5" clip-path="inset(0 118px 0 0)" opacity="0.5"/>
<line x1="220" y1="110" x2="320" y2="210" stroke="#888" stroke-width="0.5" clip-path="inset(0 118px 0 0)" opacity="0.5"/>
<line x1="226" y1="110" x2="326" y2="210" stroke="#888" stroke-width="0.5" clip-path="inset(0 118px 0 0)" opacity="0.5"/>
<line x1="232" y1="110" x2="332" y2="210" stroke="#888" stroke-width="0.5" clip-path="inset(0 118px 0 0)" opacity="0.5"/>
<line x1="238" y1="110" x2="338" y2="210" stroke="#888" stroke-width="0.5" clip-path="inset(0 118px 0 0)" opacity="0.5"/>
<line x1="244" y1="110" x2="344" y2="210" stroke="#888" stroke-width="0.5" clip-path="inset(0 118px 0 0)" opacity="0.5"/>
<line x1="250" y1="110" x2="350" y2="210" stroke="#888" stroke-width="0.5" clip-path="inset(0 118px 0 0)" opacity="0.5"/>
<line x1="256" y1="110" x2="356" y2="210" stroke="#888" stroke-width="0.5" clip-path="inset(0 118px 0 0)" opacity="0.5"/>
<line x1="262" y1="110" x2="362" y2="210" stroke="#888" stroke-width="0.5" clip-path="inset(0 118px 0 0)" opacity="0.5"/>
<line x1="268" y1="110" x2="368" y2="210" stroke="#888" stroke-width="0.5" clip-path="inset(0 118px 0 0)" opacity="0.5"/>
<line x1="274" y1="110" x2="374" y2="210" stroke="#888" stroke-width="0.5" clip-path="inset(0 118px 0 0)" opacity="0.5"/>
<line x1="280" y1="110" x2="380" y2="210" stroke="#888" stroke-width="0.5" clip-path="inset(0 118px 0 0)" opacity="0.5"/>
<line x1="286" y1="110" x2="386" y2="210" stroke="#888" stroke-width="0.5" clip-path="inset(0 118px 0 0)" opacity="0.5"/>
<line x1="292" y1="110" x2="392" y2="210" stroke="#888" stroke-width="0.5" clip-path="inset(0 118px 0 0)" opacity="0.5"/>
<line x1="298" y1="110" x2="398" y2="210" stroke="#888" stroke-width="0.5" clip-path="inset(0 118px 0 0)" opacity="0.5"/>
<line x1="304" y1="110" x2="404" y2="210" stroke="#888" stroke-width="0.5" clip-path="inset(0 118px 0 0)" opacity="0.5"/>
<line x1="310" y1="110" x2="410" y2="210" stroke="#888" stroke-width="0.5" clip-path="inset(0 118px 0 0)" opacity="0.5"/>
<line x1="316" y1="110" x2="416" y2="210" stroke="#888" stroke-width="0.5" clip-path="inset(0 118px 0 0)" opacity="0.5"/>
<line x1="322" y1="110" x2="422" y2="210" stroke="#888" stroke-width="0.5" clip-path="inset(0 118px 0 0)" opacity="0.5"/>
<line x1="328" y1="110" x2="428" y2="210" stroke="#888" stroke-width="0.5" clip-path="inset(0 118px 0 0)" opacity="0.5"/>
<line x1="334" y1="110" x2="434" y2="210" stroke="#888" stroke-width="0.5" clip-path="inset(0 118px 0 0)" opacity="0.5"/>
<line x1="340" y1="110" x2="440" y2="210" stroke="#888" stroke-width="0.5" clip-path="inset(0 118px 0 0)" opacity="0.5"/>
<line x1="346" y1="110" x2="446" y2="210" stroke="#888" stroke-width="0.5" clip-path="inset(0 118px 0 0)" opacity="0.5"/>
<text x="311.0" y="170.0" font-size="32" font-weight="700" text-anchor="middle" fill="#7a1a1a">C1</text>
<rect x="370" y="110" width="140" height="100" fill="#a5d8ff" stroke="#1971c2" stroke-width="2"/>
<rect x="370" y="110" width="22" height="100" fill="#cccccc" stroke="#888" stroke-width="1" opacity="0.7"/>
<line x1="270" y1="110" x2="370" y2="210" stroke="#888" stroke-width="0.5" clip-path="inset(0 118px 0 0)" opacity="0.5"/>
<line x1="276" y1="110" x2="376" y2="210" stroke="#888" stroke-width="0.5" clip-path="inset(0 118px 0 0)" opacity="0.5"/>
<line x1="282" y1="110" x2="382" y2="210" stroke="#888" stroke-width="0.5" clip-path="inset(0 118px 0 0)" opacity="0.5"/>
<line x1="288" y1="110" x2="388" y2="210" stroke="#888" stroke-width="0.5" clip-path="inset(0 118px 0 0)" opacity="0.5"/>
<line x1="294" y1="110" x2="394" y2="210" stroke="#888" stroke-width="0.5" clip-path="inset(0 118px 0 0)" opacity="0.5"/>
<line x1="300" y1="110" x2="400" y2="210" stroke="#888" stroke-width="0.5" clip-path="inset(0 118px 0 0)" opacity="0.5"/>
<line x1="306" y1="110" x2="406" y2="210" stroke="#888" stroke-width="0.5" clip-path="inset(0 118px 0 0)" opacity="0.5"/>
<line x1="312" y1="110" x2="412" y2="210" stroke="#888" stroke-width="0.5" clip-path="inset(0 118px 0 0)" opacity="0.5"/>
<line x1="318" y1="110" x2="418" y2="210" stroke="#888" stroke-width="0.5" clip-path="inset(0 118px 0 0)" opacity="0.5"/>
<line x1="324" y1="110" x2="424" y2="210" stroke="#888" stroke-width="0.5" clip-path="inset(0 118px 0 0)" opacity="0.5"/>
<line x1="330" y1="110" x2="430" y2="210" stroke="#888" stroke-width="0.5" clip-path="inset(0 118px 0 0)" opacity="0.5"/>
<line x1="336" y1="110" x2="436" y2="210" stroke="#888" stroke-width="0.5" clip-path="inset(0 118px 0 0)" opacity="0.5"/>
<line x1="342" y1="110" x2="442" y2="210" stroke="#888" stroke-width="0.5" clip-path="inset(0 118px 0 0)" opacity="0.5"/>
<line x1="348" y1="110" x2="448" y2="210" stroke="#888" stroke-width="0.5" clip-path="inset(0 118px 0 0)" opacity="0.5"/>
<line x1="354" y1="110" x2="454" y2="210" stroke="#888" stroke-width="0.5" clip-path="inset(0 118px 0 0)" opacity="0.5"/>
<line x1="360" y1="110" x2="460" y2="210" stroke="#888" stroke-width="0.5" clip-path="inset(0 118px 0 0)" opacity="0.5"/>
<line x1="366" y1="110" x2="466" y2="210" stroke="#888" stroke-width="0.5" clip-path="inset(0 118px 0 0)" opacity="0.5"/>
<line x1="372" y1="110" x2="472" y2="210" stroke="#888" stroke-width="0.5" clip-path="inset(0 118px 0 0)" opacity="0.5"/>
<line x1="378" y1="110" x2="478" y2="210" stroke="#888" stroke-width="0.5" clip-path="inset(0 118px 0 0)" opacity="0.5"/>
<line x1="384" y1="110" x2="484" y2="210" stroke="#888" stroke-width="0.5" clip-path="inset(0 118px 0 0)" opacity="0.5"/>
<line x1="390" y1="110" x2="490" y2="210" stroke="#888" stroke-width="0.5" clip-path="inset(0 118px 0 0)" opacity="0.5"/>
<line x1="396" y1="110" x2="496" y2="210" stroke="#888" stroke-width="0.5" clip-path="inset(0 118px 0 0)" opacity="0.5"/>
<line x1="402" y1="110" x2="502" y2="210" stroke="#888" stroke-width="0.5" clip-path="inset(0 118px 0 0)" opacity="0.5"/>
<line x1="408" y1="110" x2="508" y2="210" stroke="#888" stroke-width="0.5" clip-path="inset(0 118px 0 0)" opacity="0.5"/>
<line x1="414" y1="110" x2="514" y2="210" stroke="#888" stroke-width="0.5" clip-path="inset(0 118px 0 0)" opacity="0.5"/>
<line x1="420" y1="110" x2="520" y2="210" stroke="#888" stroke-width="0.5" clip-path="inset(0 118px 0 0)" opacity="0.5"/>
<line x1="426" y1="110" x2="526" y2="210" stroke="#888" stroke-width="0.5" clip-path="inset(0 118px 0 0)" opacity="0.5"/>
<line x1="432" y1="110" x2="532" y2="210" stroke="#888" stroke-width="0.5" clip-path="inset(0 118px 0 0)" opacity="0.5"/>
<line x1="438" y1="110" x2="538" y2="210" stroke="#888" stroke-width="0.5" clip-path="inset(0 118px 0 0)" opacity="0.5"/>
<line x1="444" y1="110" x2="544" y2="210" stroke="#888" stroke-width="0.5" clip-path="inset(0 118px 0 0)" opacity="0.5"/>
<line x1="450" y1="110" x2="550" y2="210" stroke="#888" stroke-width="0.5" clip-path="inset(0 118px 0 0)" opacity="0.5"/>
<line x1="456" y1="110" x2="556" y2="210" stroke="#888" stroke-width="0.5" clip-path="inset(0 118px 0 0)" opacity="0.5"/>
<line x1="462" y1="110" x2="562" y2="210" stroke="#888" stroke-width="0.5" clip-path="inset(0 118px 0 0)" opacity="0.5"/>
<line x1="468" y1="110" x2="568" y2="210" stroke="#888" stroke-width="0.5" clip-path="inset(0 118px 0 0)" opacity="0.5"/>
<line x1="474" y1="110" x2="574" y2="210" stroke="#888" stroke-width="0.5" clip-path="inset(0 118px 0 0)" opacity="0.5"/>
<line x1="480" y1="110" x2="580" y2="210" stroke="#888" stroke-width="0.5" clip-path="inset(0 118px 0 0)" opacity="0.5"/>
<line x1="486" y1="110" x2="586" y2="210" stroke="#888" stroke-width="0.5" clip-path="inset(0 118px 0 0)" opacity="0.5"/>
<text x="451.0" y="170.0" font-size="32" font-weight="700" text-anchor="middle" fill="#0b3d70">T2</text>
<rect x="510" y="110" width="140" height="100" fill="#ffc9c9" stroke="#c92a2a" stroke-width="2"/>
<rect x="510" y="110" width="22" height="100" fill="#cccccc" stroke="#888" stroke-width="1" opacity="0.7"/>
<line x1="410" y1="110" x2="510" y2="210" stroke="#888" stroke-width="0.5" clip-path="inset(0 118px 0 0)" opacity="0.5"/>
<line x1="416" y1="110" x2="516" y2="210" stroke="#888" stroke-width="0.5" clip-path="inset(0 118px 0 0)" opacity="0.5"/>
<line x1="422" y1="110" x2="522" y2="210" stroke="#888" stroke-width="0.5" clip-path="inset(0 118px 0 0)" opacity="0.5"/>
<line x1="428" y1="110" x2="528" y2="210" stroke="#888" stroke-width="0.5" clip-path="inset(0 118px 0 0)" opacity="0.5"/>
<line x1="434" y1="110" x2="534" y2="210" stroke="#888" stroke-width="0.5" clip-path="inset(0 118px 0 0)" opacity="0.5"/>
<line x1="440" y1="110" x2="540" y2="210" stroke="#888" stroke-width="0.5" clip-path="inset(0 118px 0 0)" opacity="0.5"/>
<line x1="446" y1="110" x2="546" y2="210" stroke="#888" stroke-width="0.5" clip-path="inset(0 118px 0 0)" opacity="0.5"/>
<line x1="452" y1="110" x2="552" y2="210" stroke="#888" stroke-width="0.5" clip-path="inset(0 118px 0 0)" opacity="0.5"/>
<line x1="458" y1="110" x2="558" y2="210" stroke="#888" stroke-width="0.5" clip-path="inset(0 118px 0 0)" opacity="0.5"/>
<line x1="464" y1="110" x2="564" y2="210" stroke="#888" stroke-width="0.5" clip-path="inset(0 118px 0 0)" opacity="0.5"/>
<line x1="470" y1="110" x2="570" y2="210" stroke="#888" stroke-width="0.5" clip-path="inset(0 118px 0 0)" opacity="0.5"/>
<line x1="476" y1="110" x2="576" y2="210" stroke="#888" stroke-width="0.5" clip-path="inset(0 118px 0 0)" opacity="0.5"/>
<line x1="482" y1="110" x2="582" y2="210" stroke="#888" stroke-width="0.5" clip-path="inset(0 118px 0 0)" opacity="0.5"/>
<line x1="488" y1="110" x2="588" y2="210" stroke="#888" stroke-width="0.5" clip-path="inset(0 118px 0 0)" opacity="0.5"/>
<line x1="494" y1="110" x2="594" y2="210" stroke="#888" stroke-width="0.5" clip-path="inset(0 118px 0 0)" opacity="0.5"/>
<line x1="500" y1="110" x2="600" y2="210" stroke="#888" stroke-width="0.5" clip-path="inset(0 118px 0 0)" opacity="0.5"/>
<line x1="506" y1="110" x2="606" y2="210" stroke="#888" stroke-width="0.5" clip-path="inset(0 118px 0 0)" opacity="0.5"/>
<line x1="512" y1="110" x2="612" y2="210" stroke="#888" stroke-width="0.5" clip-path="inset(0 118px 0 0)" opacity="0.5"/>
<line x1="518" y1="110" x2="618" y2="210" stroke="#888" stroke-width="0.5" clip-path="inset(0 118px 0 0)" opacity="0.5"/>
<line x1="524" y1="110" x2="624" y2="210" stroke="#888" stroke-width="0.5" clip-path="inset(0 118px 0 0)" opacity="0.5"/>
<line x1="530" y1="110" x2="630" y2="210" stroke="#888" stroke-width="0.5" clip-path="inset(0 118px 0 0)" opacity="0.5"/>
<line x1="536" y1="110" x2="636" y2="210" stroke="#888" stroke-width="0.5" clip-path="inset(0 118px 0 0)" opacity="0.5"/>
<line x1="542" y1="110" x2="642" y2="210" stroke="#888" stroke-width="0.5" clip-path="inset(0 118px 0 0)" opacity="0.5"/>
<line x1="548" y1="110" x2="648" y2="210" stroke="#888" stroke-width="0.5" clip-path="inset(0 118px 0 0)" opacity="0.5"/>
<line x1="554" y1="110" x2="654" y2="210" stroke="#888" stroke-width="0.5" clip-path="inset(0 118px 0 0)" opacity="0.5"/>
<line x1="560" y1="110" x2="660" y2="210" stroke="#888" stroke-width="0.5" clip-path="inset(0 118px 0 0)" opacity="0.5"/>
<line x1="566" y1="110" x2="666" y2="210" stroke="#888" stroke-width="0.5" clip-path="inset(0 118px 0 0)" opacity="0.5"/>
<line x1="572" y1="110" x2="672" y2="210" stroke="#888" stroke-width="0.5" clip-path="inset(0 118px 0 0)" opacity="0.5"/>
<line x1="578" y1="110" x2="678" y2="210" stroke="#888" stroke-width="0.5" clip-path="inset(0 118px 0 0)" opacity="0.5"/>
<line x1="584" y1="110" x2="684" y2="210" stroke="#888" stroke-width="0.5" clip-path="inset(0 118px 0 0)" opacity="0.5"/>
<line x1="590" y1="110" x2="690" y2="210" stroke="#888" stroke-width="0.5" clip-path="inset(0 118px 0 0)" opacity="0.5"/>
<line x1="596" y1="110" x2="696" y2="210" stroke="#888" stroke-width="0.5" clip-path="inset(0 118px 0 0)" opacity="0.5"/>
<line x1="602" y1="110" x2="702" y2="210" stroke="#888" stroke-width="0.5" clip-path="inset(0 118px 0 0)" opacity="0.5"/>
<line x1="608" y1="110" x2="708" y2="210" stroke="#888" stroke-width="0.5" clip-path="inset(0 118px 0 0)" opacity="0.5"/>
<line x1="614" y1="110" x2="714" y2="210" stroke="#888" stroke-width="0.5" clip-path="inset(0 118px 0 0)" opacity="0.5"/>
<line x1="620" y1="110" x2="720" y2="210" stroke="#888" stroke-width="0.5" clip-path="inset(0 118px 0 0)" opacity="0.5"/>
<line x1="626" y1="110" x2="726" y2="210" stroke="#888" stroke-width="0.5" clip-path="inset(0 118px 0 0)" opacity="0.5"/>
<text x="591.0" y="170.0" font-size="32" font-weight="700" text-anchor="middle" fill="#7a1a1a">C2</text>
<rect x="650" y="110" width="140" height="100" fill="#a5d8ff" stroke="#1971c2" stroke-width="2"/>
<rect x="650" y="110" width="22" height="100" fill="#cccccc" stroke="#888" stroke-width="1" opacity="0.7"/>
<line x1="550" y1="110" x2="650" y2="210" stroke="#888" stroke-width="0.5" clip-path="inset(0 118px 0 0)" opacity="0.5"/>
<line x1="556" y1="110" x2="656" y2="210" stroke="#888" stroke-width="0.5" clip-path="inset(0 118px 0 0)" opacity="0.5"/>
<line x1="562" y1="110" x2="662" y2="210" stroke="#888" stroke-width="0.5" clip-path="inset(0 118px 0 0)" opacity="0.5"/>
<line x1="568" y1="110" x2="668" y2="210" stroke="#888" stroke-width="0.5" clip-path="inset(0 118px 0 0)" opacity="0.5"/>
<line x1="574" y1="110" x2="674" y2="210" stroke="#888" stroke-width="0.5" clip-path="inset(0 118px 0 0)" opacity="0.5"/>
<line x1="580" y1="110" x2="680" y2="210" stroke="#888" stroke-width="0.5" clip-path="inset(0 118px 0 0)" opacity="0.5"/>
<line x1="586" y1="110" x2="686" y2="210" stroke="#888" stroke-width="0.5" clip-path="inset(0 118px 0 0)" opacity="0.5"/>
<line x1="592" y1="110" x2="692" y2="210" stroke="#888" stroke-width="0.5" clip-path="inset(0 118px 0 0)" opacity="0.5"/>
<line x1="598" y1="110" x2="698" y2="210" stroke="#888" stroke-width="0.5" clip-path="inset(0 118px 0 0)" opacity="0.5"/>
<line x1="604" y1="110" x2="704" y2="210" stroke="#888" stroke-width="0.5" clip-path="inset(0 118px 0 0)" opacity="0.5"/>
<line x1="610" y1="110" x2="710" y2="210" stroke="#888" stroke-width="0.5" clip-path="inset(0 118px 0 0)" opacity="0.5"/>
<line x1="616" y1="110" x2="716" y2="210" stroke="#888" stroke-width="0.5" clip-path="inset(0 118px 0 0)" opacity="0.5"/>
<line x1="622" y1="110" x2="722" y2="210" stroke="#888" stroke-width="0.5" clip-path="inset(0 118px 0 0)" opacity="0.5"/>
<line x1="628" y1="110" x2="728" y2="210" stroke="#888" stroke-width="0.5" clip-path="inset(0 118px 0 0)" opacity="0.5"/>
<line x1="634" y1="110" x2="734" y2="210" stroke="#888" stroke-width="0.5" clip-path="inset(0 118px 0 0)" opacity="0.5"/>
<line x1="640" y1="110" x2="740" y2="210" stroke="#888" stroke-width="0.5" clip-path="inset(0 118px 0 0)" opacity="0.5"/>
<line x1="646" y1="110" x2="746" y2="210" stroke="#888" stroke-width="0.5" clip-path="inset(0 118px 0 0)" opacity="0.5"/>
<line x1="652" y1="110" x2="752" y2="210" stroke="#888" stroke-width="0.5" clip-path="inset(0 118px 0 0)" opacity="0.5"/>
<line x1="658" y1="110" x2="758" y2="210" stroke="#888" stroke-width="0.5" clip-path="inset(0 118px 0 0)" opacity="0.5"/>
<line x1="664" y1="110" x2="764" y2="210" stroke="#888" stroke-width="0.5" clip-path="inset(0 118px 0 0)" opacity="0.5"/>
<line x1="670" y1="110" x2="770" y2="210" stroke="#888" stroke-width="0.5" clip-path="inset(0 118px 0 0)" opacity="0.5"/>
<line x1="676" y1="110" x2="776" y2="210" stroke="#888" stroke-width="0.5" clip-path="inset(0 118px 0 0)" opacity="0.5"/>
<line x1="682" y1="110" x2="782" y2="210" stroke="#888" stroke-width="0.5" clip-path="inset(0 118px 0 0)" opacity="0.5"/>
<line x1="688" y1="110" x2="788" y2="210" stroke="#888" stroke-width="0.5" clip-path="inset(0 118px 0 0)" opacity="0.5"/>
<line x1="694" y1="110" x2="794" y2="210" stroke="#888" stroke-width="0.5" clip-path="inset(0 118px 0 0)" opacity="0.5"/>
<line x1="700" y1="110" x2="800" y2="210" stroke="#888" stroke-width="0.5" clip-path="inset(0 118px 0 0)" opacity="0.5"/>
<line x1="706" y1="110" x2="806" y2="210" stroke="#888" stroke-width="0.5" clip-path="inset(0 118px 0 0)" opacity="0.5"/>
<line x1="712" y1="110" x2="812" y2="210" stroke="#888" stroke-width="0.5" clip-path="inset(0 118px 0 0)" opacity="0.5"/>
<line x1="718" y1="110" x2="818" y2="210" stroke="#888" stroke-width="0.5" clip-path="inset(0 118px 0 0)" opacity="0.5"/>
<line x1="724" y1="110" x2="824" y2="210" stroke="#888" stroke-width="0.5" clip-path="inset(0 118px 0 0)" opacity="0.5"/>
<line x1="730" y1="110" x2="830" y2="210" stroke="#888" stroke-width="0.5" clip-path="inset(0 118px 0 0)" opacity="0.5"/>
<line x1="736" y1="110" x2="836" y2="210" stroke="#888" stroke-width="0.5" clip-path="inset(0 118px 0 0)" opacity="0.5"/>
<line x1="742" y1="110" x2="842" y2="210" stroke="#888" stroke-width="0.5" clip-path="inset(0 118px 0 0)" opacity="0.5"/>
<line x1="748" y1="110" x2="848" y2="210" stroke="#888" stroke-width="0.5" clip-path="inset(0 118px 0 0)" opacity="0.5"/>
<line x1="754" y1="110" x2="854" y2="210" stroke="#888" stroke-width="0.5" clip-path="inset(0 118px 0 0)" opacity="0.5"/>
<line x1="760" y1="110" x2="860" y2="210" stroke="#888" stroke-width="0.5" clip-path="inset(0 118px 0 0)" opacity="0.5"/>
<line x1="766" y1="110" x2="866" y2="210" stroke="#888" stroke-width="0.5" clip-path="inset(0 118px 0 0)" opacity="0.5"/>
<text x="731.0" y="170.0" font-size="32" font-weight="700" text-anchor="middle" fill="#0b3d70">T3</text>
<rect x="790" y="110" width="140" height="100" fill="#ffc9c9" stroke="#c92a2a" stroke-width="2"/>
<rect x="790" y="110" width="22" height="100" fill="#cccccc" stroke="#888" stroke-width="1" opacity="0.7"/>
<line x1="690" y1="110" x2="790" y2="210" stroke="#888" stroke-width="0.5" clip-path="inset(0 118px 0 0)" opacity="0.5"/>
<line x1="696" y1="110" x2="796" y2="210" stroke="#888" stroke-width="0.5" clip-path="inset(0 118px 0 0)" opacity="0.5"/>
<line x1="702" y1="110" x2="802" y2="210" stroke="#888" stroke-width="0.5" clip-path="inset(0 118px 0 0)" opacity="0.5"/>
<line x1="708" y1="110" x2="808" y2="210" stroke="#888" stroke-width="0.5" clip-path="inset(0 118px 0 0)" opacity="0.5"/>
<line x1="714" y1="110" x2="814" y2="210" stroke="#888" stroke-width="0.5" clip-path="inset(0 118px 0 0)" opacity="0.5"/>
<line x1="720" y1="110" x2="820" y2="210" stroke="#888" stroke-width="0.5" clip-path="inset(0 118px 0 0)" opacity="0.5"/>
<line x1="726" y1="110" x2="826" y2="210" stroke="#888" stroke-width="0.5" clip-path="inset(0 118px 0 0)" opacity="0.5"/>
<line x1="732" y1="110" x2="832" y2="210" stroke="#888" stroke-width="0.5" clip-path="inset(0 118px 0 0)" opacity="0.5"/>
<line x1="738" y1="110" x2="838" y2="210" stroke="#888" stroke-width="0.5" clip-path="inset(0 118px 0 0)" opacity="0.5"/>
<line x1="744" y1="110" x2="844" y2="210" stroke="#888" stroke-width="0.5" clip-path="inset(0 118px 0 0)" opacity="0.5"/>
<line x1="750" y1="110" x2="850" y2="210" stroke="#888" stroke-width="0.5" clip-path="inset(0 118px 0 0)" opacity="0.5"/>
<line x1="756" y1="110" x2="856" y2="210" stroke="#888" stroke-width="0.5" clip-path="inset(0 118px 0 0)" opacity="0.5"/>
<line x1="762" y1="110" x2="862" y2="210" stroke="#888" stroke-width="0.5" clip-path="inset(0 118px 0 0)" opacity="0.5"/>
<line x1="768" y1="110" x2="868" y2="210" stroke="#888" stroke-width="0.5" clip-path="inset(0 118px 0 0)" opacity="0.5"/>
<line x1="774" y1="110" x2="874" y2="210" stroke="#888" stroke-width="0.5" clip-path="inset(0 118px 0 0)" opacity="0.5"/>
<line x1="780" y1="110" x2="880" y2="210" stroke="#888" stroke-width="0.5" clip-path="inset(0 118px 0 0)" opacity="0.5"/>
<line x1="786" y1="110" x2="886" y2="210" stroke="#888" stroke-width="0.5" clip-path="inset(0 118px 0 0)" opacity="0.5"/>
<line x1="792" y1="110" x2="892" y2="210" stroke="#888" stroke-width="0.5" clip-path="inset(0 118px 0 0)" opacity="0.5"/>
<line x1="798" y1="110" x2="898" y2="210" stroke="#888" stroke-width="0.5" clip-path="inset(0 118px 0 0)" opacity="0.5"/>
<line x1="804" y1="110" x2="904" y2="210" stroke="#888" stroke-width="0.5" clip-path="inset(0 118px 0 0)" opacity="0.5"/>
<line x1="810" y1="110" x2="910" y2="210" stroke="#888" stroke-width="0.5" clip-path="inset(0 118px 0 0)" opacity="0.5"/>
<line x1="816" y1="110" x2="916" y2="210" stroke="#888" stroke-width="0.5" clip-path="inset(0 118px 0 0)" opacity="0.5"/>
<line x1="822" y1="110" x2="922" y2="210" stroke="#888" stroke-width="0.5" clip-path="inset(0 118px 0 0)" opacity="0.5"/>
<line x1="828" y1="110" x2="928" y2="210" stroke="#888" stroke-width="0.5" clip-path="inset(0 118px 0 0)" opacity="0.5"/>
<line x1="834" y1="110" x2="934" y2="210" stroke="#888" stroke-width="0.5" clip-path="inset(0 118px 0 0)" opacity="0.5"/>
<line x1="840" y1="110" x2="940" y2="210" stroke="#888" stroke-width="0.5" clip-path="inset(0 118px 0 0)" opacity="0.5"/>
<line x1="846" y1="110" x2="946" y2="210" stroke="#888" stroke-width="0.5" clip-path="inset(0 118px 0 0)" opacity="0.5"/>
<line x1="852" y1="110" x2="952" y2="210" stroke="#888" stroke-width="0.5" clip-path="inset(0 118px 0 0)" opacity="0.5"/>
<line x1="858" y1="110" x2="958" y2="210" stroke="#888" stroke-width="0.5" clip-path="inset(0 118px 0 0)" opacity="0.5"/>
<line x1="864" y1="110" x2="964" y2="210" stroke="#888" stroke-width="0.5" clip-path="inset(0 118px 0 0)" opacity="0.5"/>
<line x1="870" y1="110" x2="970" y2="210" stroke="#888" stroke-width="0.5" clip-path="inset(0 118px 0 0)" opacity="0.5"/>
<line x1="876" y1="110" x2="976" y2="210" stroke="#888" stroke-width="0.5" clip-path="inset(0 118px 0 0)" opacity="0.5"/>
<line x1="882" y1="110" x2="982" y2="210" stroke="#888" stroke-width="0.5" clip-path="inset(0 118px 0 0)" opacity="0.5"/>
<line x1="888" y1="110" x2="988" y2="210" stroke="#888" stroke-width="0.5" clip-path="inset(0 118px 0 0)" opacity="0.5"/>
<line x1="894" y1="110" x2="994" y2="210" stroke="#888" stroke-width="0.5" clip-path="inset(0 118px 0 0)" opacity="0.5"/>
<line x1="900" y1="110" x2="1000" y2="210" stroke="#888" stroke-width="0.5" clip-path="inset(0 118px 0 0)" opacity="0.5"/>
<line x1="906" y1="110" x2="1006" y2="210" stroke="#888" stroke-width="0.5" clip-path="inset(0 118px 0 0)" opacity="0.5"/>
<text x="871.0" y="170.0" font-size="32" font-weight="700" text-anchor="middle" fill="#7a1a1a">C3</text>
<line x1="101.0" y1="214" x2="101.0" y2="238" stroke="#555" stroke-width="1"/>
<text x="101.0" y="254" font-size="13" text-anchor="middle" fill="#555">washout (carryover discarded)</text>
<line x1="90" y1="290" x2="960" y2="290" stroke="#1e1e1e" stroke-width="2" marker-end="url(#arrowhead)"/>
<defs><marker id="arrowhead" markerWidth="10" markerHeight="10" refX="8" refY="3" orient="auto"><polygon points="0 0, 10 3, 0 6" fill="#1e1e1e"/></marker></defs>
<text x="980" y="295" font-size="16" fill="#555">time</text>
<rect x="730" y="330" width="20" height="16" fill="#a5d8ff" stroke="#1971c2" stroke-width="1"/>
<text x="758" y="343" font-size="14" fill="#1e1e1e">Treatment</text>
<rect x="910" y="330" width="20" height="16" fill="#ffc9c9" stroke="#c92a2a" stroke-width="1"/>
<text x="938" y="343" font-size="14" fill="#1e1e1e">Control</text>
</svg>
