<svg version="1.1" xmlns="http://www.w3.org/2000/svg" viewBox="0 0 845 584.25" width="845" height="584.25" class="excalidraw-svg">
  <!-- svg-source:excalidraw -->
  
  <defs>
    <style class="style-fonts">
      
    </style>
    
  </defs>
  <rect x="0" y="0" width="845" height="584.25" fill="#ffffff"/><g transform="translate(185 10) rotate(0 189.0615234375 17.5)"><text x="0" y="25.060546875" font-family="Helvetica, Segoe UI Emoji" font-size="28px" fill="#1e1e1e" text-anchor="start" style="white-space: pre;" direction="ltr" dominant-baseline="alphabetic">Recalibration mapping shapes</text></g><g stroke-linecap="round" transform="translate(35 60) rotate(0 125 180)"><path d="M0 0 C73.21 0.88, 147.42 -0.01, 250 0 M0 0 C89.3 -1.51, 179.23 -2.1, 250 0 M250 0 C250.42 112.39, 250.73 225.48, 250 360 M250 0 C251.34 122.06, 251.28 243.58, 250 360 M250 360 C192.99 361.07, 134.97 358.97, 0 360 M250 360 C170.16 358.44, 90.11 358.39, 0 360 M0 360 C0.26 228.35, 2.39 97.38, 0 0 M0 360 C-1.39 244.02, -0.61 129.36, 0 0" stroke="#1e1e1e" stroke-width="2" fill="none"/></g><g stroke-linecap="round"><g transform="translate(35 420) rotate(0 125 -180)"><path d="M0 0 C72.17 -105.4, 147.67 -212.25, 250 -360" stroke="#888888" stroke-width="2.5" fill="none" stroke-dasharray="8 10"/></g></g><mask/><g stroke-linecap="round"><g transform="translate(35 348) rotate(0 125 -126)"><path d="M0 0 C8.2 -4.72, 13.61 -4.65, 25 -11 M0 0 C7.24 -2.59, 15.91 -6.22, 25 -11 M25 -11 C33.93 -16.86, 45.75 -20.8, 50 -25 M25 -11 C31.19 -14.69, 40.1 -19.36, 50 -25 M50 -25 C57.95 -32.91, 66.02 -39.89, 75 -46 M50 -25 C55.27 -29.14, 59.84 -33.64, 75 -46 M75 -46 C80.53 -52.65, 87.16 -58.46, 100 -73 M75 -46 C81.39 -51.3, 86.55 -58.45, 100 -73 M100 -73 C108.63 -94.2, 117.6 -114.2, 125 -133 M100 -73 C105.27 -86.5, 111.94 -101.74, 125 -133 M125 -133 C134.88 -144.1, 142.76 -152.56, 150 -162 M125 -133 C133.76 -142.33, 140.13 -151.93, 150 -162 M150 -162 C154.55 -166.11, 163.07 -171.41, 175 -184 M150 -162 C156.18 -168.67, 164.82 -173.87, 175 -184 M175 -184 C181.92 -190.24, 188.58 -195.73, 200 -209 M175 -184 C184.73 -193.78, 193.51 -202.22, 200 -209 M200 -209 C211.04 -216.25, 218.96 -226.93, 225 -233 M200 -209 C207.89 -217.7, 216.72 -225.79, 225 -233 M225 -233 C235.67 -239.32, 245.54 -249.48, 250 -252 M225 -233 C230.83 -236.39, 236.16 -242.48, 250 -252" stroke="#c92a2a" stroke-width="3" fill="none"/></g></g><mask/><g transform="translate(30 425) rotate(0 3.3369140625 7.5)"><text x="0" y="10.740234375" font-family="Helvetica, Segoe UI Emoji" font-size="12px" fill="#555555" text-anchor="start" style="white-space: pre;" direction="ltr" dominant-baseline="alphabetic">0</text></g><g transform="translate(150 425) rotate(0 8.3408203125 7.5)"><text x="0" y="10.740234375" font-family="Helvetica, Segoe UI Emoji" font-size="12px" fill="#555555" text-anchor="start" style="white-space: pre;" direction="ltr" dominant-baseline="alphabetic">0.5</text></g><g transform="translate(275 425) rotate(0 3.3369140625 7.5)"><text x="0" y="10.740234375" font-family="Helvetica, Segoe UI Emoji" font-size="12px" fill="#555555" text-anchor="start" style="white-space: pre;" direction="ltr" dominant-baseline="alphabetic">1</text></g><g transform="translate(20 413) rotate(0 3.3369140625 7.5)"><text x="0" y="10.740234375" font-family="Helvetica, Segoe UI Emoji" font-size="12px" fill="#555555" text-anchor="start" style="white-space: pre;" direction="ltr" dominant-baseline="alphabetic">0</text></g><g transform="translate(10 233) rotate(0 8.3408203125 7.5)"><text x="0" y="10.740234375" font-family="Helvetica, Segoe UI Emoji" font-size="12px" fill="#555555" text-anchor="start" style="white-space: pre;" direction="ltr" dominant-baseline="alphabetic">0.5</text></g><g transform="translate(20 53) rotate(0 3.3369140625 7.5)"><text x="0" y="10.740234375" font-family="Helvetica, Segoe UI Emoji" font-size="12px" fill="#555555" text-anchor="start" style="white-space: pre;" direction="ltr" dominant-baseline="alphabetic">1</text></g><g transform="translate(95 450) rotate(0 48.6826171875 11.25)"><text x="0" y="16.1103515625" font-family="Helvetica, Segoe UI Emoji" font-size="18px" fill="#1e1e1e" text-anchor="start" style="white-space: pre;" direction="ltr" dominant-baseline="alphabetic">Platt scaling</text></g><g transform="translate(44 475) rotate(0 83.0302734375 7.5)"><text x="0" y="10.740234375" font-family="Helvetica, Segoe UI Emoji" font-size="12px" fill="#555555" text-anchor="start" style="white-space: pre;" direction="ltr" dominant-baseline="alphabetic">smooth sigmoid (2 parameters)</text></g><g stroke-linecap="round" transform="translate(310 60) rotate(0 125 180)"><path d="M0 0 C72.76 2.94, 146.21 0.58, 250 0 M0 0 C88.22 1.56, 175.59 0.48, 250 0 M250 0 C250.15 107.45, 250.13 216.51, 250 360 M250 0 C250.86 95.83, 250.72 191.21, 250 360 M250 360 C199.89 361.38, 145.87 359.68, 0 360 M250 360 C157.38 358.49, 65.87 359.87, 0 360 M0 360 C-1.9 247.08, -1.13 134.92, 0 0 M0 360 C-0.65 220.7, -1.24 80.9, 0 0" stroke="#1e1e1e" stroke-width="2" fill="none"/></g><g stroke-linecap="round"><g transform="translate(310 420) rotate(0 125 -180)"><path d="M0 0 C74.14 -106.66, 147.17 -212.43, 250 -360" stroke="#888888" stroke-width="2.5" fill="none" stroke-dasharray="8 10"/></g></g><mask/><g stroke-linecap="round"><g transform="translate(310 402) rotate(0 125 -149.5)"><path d="M0 0 C7.7 -0.67, 16.16 0.84, 25 0 M0 0 C8.09 -1.06, 13.89 0.05, 25 0 M25 0 C24.11 -14.1, 25.79 -28.67, 25 -36 M25 0 C25.35 -8.15, 24.92 -14.99, 25 -36 M25 -36 C37.8 -36.1, 50.99 -35.18, 62 -36 M25 -36 C34.17 -36.44, 44.25 -36.97, 62 -36 M62 -36 C61.67 -57.43, 63.94 -78.01, 62 -90 M62 -36 C61.7 -51.61, 61.1 -68.15, 62 -90 M62 -90 C75.55 -91.13, 91.21 -88.13, 100 -90 M62 -90 C73.66 -90.83, 87.64 -89.83, 100 -90 M100 -90 C97.85 -106.94, 100.76 -120.35, 100 -144 M100 -90 C100.12 -107.51, 99.48 -125.44, 100 -144 M100 -144 C111.55 -141.99, 119.38 -144.62, 138 -144 M100 -144 C113.72 -144.62, 128.36 -144.62, 138 -144 M138 -144 C138.98 -152.57, 137.74 -161.02, 138 -180 M138 -144 C138.37 -151.64, 137.12 -160.81, 138 -180 M138 -180 C150.08 -179.61, 164.87 -178.97, 175 -180 M138 -180 C151.62 -179.9, 163.94 -180.58, 175 -180 M175 -180 C172.93 -194.86, 174.87 -208.61, 175 -241 M175 -180 C174.51 -199.79, 174.89 -218.93, 175 -241 M175 -241 C183.63 -242.44, 193.07 -242.04, 213 -241 M175 -241 C187.86 -240.79, 198.36 -240.53, 213 -241 M213 -241 C213.93 -262.02, 211.52 -286.03, 213 -299 M213 -241 C213.64 -256.07, 212.18 -269.86, 213 -299 M213 -299 C226.95 -300.62, 236.37 -297.34, 250 -299 M213 -299 C223.33 -299.19, 234.29 -298.54, 250 -299" stroke="#c92a2a" stroke-width="3" fill="none"/></g></g><mask/><g transform="translate(305 425) rotate(0 3.3369140625 7.5)"><text x="0" y="10.740234375" font-family="Helvetica, Segoe UI Emoji" font-size="12px" fill="#555555" text-anchor="start" style="white-space: pre;" direction="ltr" dominant-baseline="alphabetic">0</text></g><g transform="translate(425 425) rotate(0 8.3408203125 7.5)"><text x="0" y="10.740234375" font-family="Helvetica, Segoe UI Emoji" font-size="12px" fill="#555555" text-anchor="start" style="white-space: pre;" direction="ltr" dominant-baseline="alphabetic">0.5</text></g><g transform="translate(550 425) rotate(0 3.3369140625 7.5)"><text x="0" y="10.740234375" font-family="Helvetica, Segoe UI Emoji" font-size="12px" fill="#555555" text-anchor="start" style="white-space: pre;" direction="ltr" dominant-baseline="alphabetic">1</text></g><g transform="translate(295 413) rotate(0 3.3369140625 7.5)"><text x="0" y="10.740234375" font-family="Helvetica, Segoe UI Emoji" font-size="12px" fill="#555555" text-anchor="start" style="white-space: pre;" direction="ltr" dominant-baseline="alphabetic">0</text></g><g transform="translate(285 233) rotate(0 8.3408203125 7.5)"><text x="0" y="10.740234375" font-family="Helvetica, Segoe UI Emoji" font-size="12px" fill="#555555" text-anchor="start" style="white-space: pre;" direction="ltr" dominant-baseline="alphabetic">0.5</text></g><g transform="translate(295 53) rotate(0 3.3369140625 7.5)"><text x="0" y="10.740234375" font-family="Helvetica, Segoe UI Emoji" font-size="12px" fill="#555555" text-anchor="start" style="white-space: pre;" direction="ltr" dominant-baseline="alphabetic">1</text></g><g transform="translate(340 450) rotate(0 75.83203125 11.25)"><text x="0" y="16.1103515625" font-family="Helvetica, Segoe UI Emoji" font-size="18px" fill="#1e1e1e" text-anchor="start" style="white-space: pre;" direction="ltr" dominant-baseline="alphabetic">Isotonic regression</text></g><g transform="translate(363 475) rotate(0 50.900390625 7.5)"><text x="0" y="10.740234375" font-family="Helvetica, Segoe UI Emoji" font-size="12px" fill="#555555" text-anchor="start" style="white-space: pre;" direction="ltr" dominant-baseline="alphabetic">piecewise constant</text></g><g stroke-linecap="round" transform="translate(585 60) rotate(0 125 180)"><path d="M0 0 C72.31 0.93, 148.26 0.36, 250 0 M0 0 C85.52 -1.08, 171.96 -1.02, 250 0 M250 0 C249.89 102.52, 249.52 207.55, 250 360 M250 0 C250.38 141.6, 250.15 284.1, 250 360 M250 360 C153.52 358.42, 60.04 360.38, 0 360 M250 360 C194.6 360.17, 139.98 359.73, 0 360 M0 360 C3.04 265.8, 2.43 172.45, 0 0 M0 360 C-1.18 268.1, -0.61 176.44, 0 0" stroke="#1e1e1e" stroke-width="2" fill="none"/></g><g stroke-linecap="round"><g transform="translate(585 420) rotate(0 125 -180)"><path d="M0 0 C74.1 -105.4, 146.67 -212.1, 250 -360" stroke="#888888" stroke-width="2.5" fill="none" stroke-dasharray="8 10"/></g></g><mask/><g stroke-linecap="round"><g transform="translate(585 384) rotate(0 125 -144)"><path d="M0 0 C7.07 -5.7, 14.59 -11.32, 25 -18 M0 0 C7.04 -5.55, 13.98 -10.22, 25 -18 M25 -18 C33.05 -26.6, 43.13 -33.99, 50 -39 M25 -18 C33.59 -25.94, 41.65 -32.63, 50 -39 M50 -39 C59.4 -46.88, 65.81 -53.74, 75 -66 M50 -39 C56.96 -48.07, 64.54 -54.94, 75 -66 M75 -66 C82.47 -76.58, 91.14 -86.21, 100 -96 M75 -66 C84.65 -77.65, 92.82 -86.97, 100 -96 M100 -96 C104.05 -107.13, 111.91 -114.49, 125 -144 M100 -96 C106.65 -106.12, 110.42 -117.61, 125 -144 M125 -144 C129.66 -156.76, 138.19 -165.03, 150 -192 M125 -144 C132.78 -159.44, 141.36 -175.67, 150 -192 M150 -192 C158.2 -201.46, 162.68 -206.79, 175 -222 M150 -192 C156.5 -200.02, 164.18 -209.53, 175 -222 M175 -222 C182.75 -227.87, 186.24 -234.2, 200 -249 M175 -222 C182.15 -230.18, 189.03 -236.72, 200 -249 M200 -249 C208.46 -257.8, 217.52 -262.03, 225 -270 M200 -249 C208.98 -256.4, 218.49 -263.23, 225 -270 M225 -270 C231.26 -274.36, 237.35 -280.63, 250 -288 M225 -270 C234.98 -277.37, 244.14 -284.74, 250 -288" stroke="#c92a2a" stroke-width="3" fill="none"/></g></g><mask/><g transform="translate(580 425) rotate(0 3.3369140625 7.5)"><text x="0" y="10.740234375" font-family="Helvetica, Segoe UI Emoji" font-size="12px" fill="#555555" text-anchor="start" style="white-space: pre;" direction="ltr" dominant-baseline="alphabetic">0</text></g><g transform="translate(700 425) rotate(0 8.3408203125 7.5)"><text x="0" y="10.740234375" font-family="Helvetica, Segoe UI Emoji" font-size="12px" fill="#555555" text-anchor="start" style="white-space: pre;" direction="ltr" dominant-baseline="alphabetic">0.5</text></g><g transform="translate(825 425) rotate(0 3.3369140625 7.5)"><text x="0" y="10.740234375" font-family="Helvetica, Segoe UI Emoji" font-size="12px" fill="#555555" text-anchor="start" style="white-space: pre;" direction="ltr" dominant-baseline="alphabetic">1</text></g><g transform="translate(570 413) rotate(0 3.3369140625 7.5)"><text x="0" y="10.740234375" font-family="Helvetica, Segoe UI Emoji" font-size="12px" fill="#555555" text-anchor="start" style="white-space: pre;" direction="ltr" dominant-baseline="alphabetic">0</text></g><g transform="translate(560 233) rotate(0 8.3408203125 7.5)"><text x="0" y="10.740234375" font-family="Helvetica, Segoe UI Emoji" font-size="12px" fill="#555555" text-anchor="start" style="white-space: pre;" direction="ltr" dominant-baseline="alphabetic">0.5</text></g><g transform="translate(570 53) rotate(0 3.3369140625 7.5)"><text x="0" y="10.740234375" font-family="Helvetica, Segoe UI Emoji" font-size="12px" fill="#555555" text-anchor="start" style="white-space: pre;" direction="ltr" dominant-baseline="alphabetic">1</text></g><g transform="translate(615 450) rotate(0 81.03955078125 11.25)"><text x="0" y="16.1103515625" font-family="Helvetica, Segoe UI Emoji" font-size="18px" fill="#1e1e1e" text-anchor="start" style="white-space: pre;" direction="ltr" dominant-baseline="alphabetic">Temperature scaling</text></g><g transform="translate(614 475) rotate(0 58.6875 7.5)"><text x="0" y="10.740234375" font-family="Helvetica, Segoe UI Emoji" font-size="12px" fill="#555555" text-anchor="start" style="white-space: pre;" direction="ltr" dominant-baseline="alphabetic">single T (logit rescale)</text></g><g transform="translate(285 535) rotate(0 101.8359375 9.375)"><text x="0" y="13.42529296875" font-family="Helvetica, Segoe UI Emoji" font-size="15px" fill="#1e1e1e" text-anchor="start" style="white-space: pre;" direction="ltr" dominant-baseline="alphabetic">Raw model output (probability)</text></g><g transform="translate(-9.821948743975781 239.42797713803952) rotate(-90.0002104591497 70.697021484375 9.375)"><text x="0" y="13.42529296875" font-family="Helvetica, Segoe UI Emoji" font-size="15px" fill="#1e1e1e" text-anchor="start" style="white-space: pre;" direction="ltr" dominant-baseline="alphabetic">Calibrated probability</text></g><g stroke-linecap="round"><g transform="translate(245 565) rotate(0 17.5 0)"><path d="M0 0 C9.93 0.21, 19.88 -0.84, 35 0" stroke="#888888" stroke-width="2.5" fill="none" stroke-dasharray="8 10"/></g></g><mask/><g transform="translate(290 558) rotate(0 64.48583984375 8.125)"><text x="0" y="11.63525390625" font-family="Helvetica, Segoe UI Emoji" font-size="13px" fill="#555555" text-anchor="start" style="white-space: pre;" direction="ltr" dominant-baseline="alphabetic">y = x (no recalibration)</text></g><g stroke-linecap="round"><g transform="translate(495 565) rotate(0 17.5 0)"><path d="M0 0 C10.79 -0.89, 21.56 0.25, 35 0 M0 0 C7.53 0.26, 15.47 0.44, 35 0" stroke="#c92a2a" stroke-width="3" fill="none"/></g></g><mask/><g transform="translate(540 558) rotate(0 50.044921875 8.125)"><text x="0" y="11.63525390625" font-family="Helvetica, Segoe UI Emoji" font-size="13px" fill="#555555" text-anchor="start" style="white-space: pre;" direction="ltr" dominant-baseline="alphabetic">recalibration map</text></g></svg>