<svg version="1.1" xmlns="http://www.w3.org/2000/svg" viewBox="0 0 805 563.75" width="805" height="563.75" filter="invert(93%) hue-rotate(180deg)" class="excalidraw-svg">
  <!-- svg-source:excalidraw -->
  
  <defs>
    <style class="style-fonts">
      
    </style>
    
  </defs>
  <rect x="0" y="0" width="805" height="563.75" fill="#ffffff"/><g transform="translate(215 10) rotate(0 114.7001953125 17.5)"><text x="0" y="25.060546875" font-family="Helvetica, Segoe UI Emoji" font-size="28px" fill="#1e1e1e" text-anchor="start" style="white-space: pre;" direction="ltr" dominant-baseline="alphabetic">Reliability diagram</text></g><g stroke-linecap="round"><g transform="translate(45 490) rotate(0 235 0)"><path d="M0 0 C138.55 0.64, 277.65 0.16, 470 0 M0 0 C168.81 -1.7, 337.96 -2.03, 470 0" stroke="#1e1e1e" stroke-width="2" fill="none"/></g></g><mask/><g stroke-linecap="round"><g transform="translate(45 490) rotate(0 0 -215)"><path d="M0 0 C-1.93 -127.3, -0.28 -254.86, 0 -430 M0 0 C-1.86 -99.46, -2.12 -199.99, 0 -430" stroke="#1e1e1e" stroke-width="2" fill="none"/></g></g><mask/><g stroke-linecap="round"><g transform="translate(45 490) rotate(0 235 -215)"><path d="M0 0 C138.29 -128.13, 276.43 -253.91, 470 -430" stroke="#888888" stroke-width="2.5" fill="none" stroke-dasharray="8 10"/></g></g><mask/><g stroke-linecap="round"><g transform="translate(45 447) rotate(0 235 -172)"><path d="M0 0 C13.37 -8.23, 28.11 -18.77, 47 -34 M0 0 C18.68 -12.12, 35 -25.97, 47 -34 M47 -34 C56.38 -40.95, 67.77 -48.96, 94 -71 M47 -34 C59.36 -43.75, 72.36 -54.36, 94 -71 M94 -71 C107.18 -82.48, 123.18 -96.49, 141 -109 M94 -71 C105.13 -80, 117.06 -88.57, 141 -109 M141 -109 C161.3 -120.4, 176.5 -132.98, 188 -138 M141 -109 C158.38 -118.57, 175.75 -130.71, 188 -138 M188 -138 C196.15 -144.86, 207.3 -150.41, 235 -172 M188 -138 C204.15 -149.39, 218.75 -160.94, 235 -172 M235 -172 C244.75 -178.78, 255.95 -186.48, 282 -206 M235 -172 C248.5 -181.85, 261.28 -191.5, 282 -206 M282 -206 C295.59 -215.76, 314.56 -227.94, 329 -240 M282 -206 C295.79 -216.06, 309.1 -225.03, 329 -240 M329 -240 C341.99 -247.58, 352.52 -256.2, 376 -274 M329 -240 C344.81 -251.74, 359.92 -263.31, 376 -274 M376 -274 C387.25 -282.42, 397.35 -289.47, 423 -310 M376 -274 C387.74 -283.19, 399.48 -292.32, 423 -310 M423 -310 C436.52 -322.05, 451.78 -332.85, 470 -344 M423 -310 C435.3 -318.15, 448.21 -327.23, 470 -344" stroke="#c92a2a" stroke-width="3" fill="none"/></g></g><mask/><g stroke-linecap="round"><g transform="translate(45 490) rotate(0 235 -215)"><path d="M0 0 C12.29 -5.99, 25.85 -12.48, 47 -21 M0 0 C11.72 -5.67, 23.6 -10.73, 47 -21 M47 -21 C57.79 -26.23, 69.68 -32.29, 94 -40 M47 -21 C57.95 -26.02, 68.67 -29.63, 94 -40 M94 -40 C104.86 -46.76, 121.03 -55.61, 141 -70 M94 -40 C107.84 -48.25, 120.71 -57.23, 141 -70 M141 -70 C156.51 -85.04, 173.45 -99.35, 188 -115 M141 -70 C156.45 -83.54, 171.71 -99.67, 188 -115 M188 -115 C200.53 -145.05, 212.08 -169.81, 235 -215 M188 -115 C198.07 -138.28, 210 -160.99, 235 -215 M235 -215 C250.34 -247.64, 266.64 -276.65, 282 -315 M235 -215 C246.42 -240.32, 258.5 -264.92, 282 -315 M282 -315 C299.02 -334.97, 318.87 -351.39, 329 -360 M282 -315 C294.36 -327.98, 308.01 -338.24, 329 -360 M329 -360 C342.2 -369.35, 354.74 -377.38, 376 -389 M329 -360 C342.87 -368.69, 358.25 -378.58, 376 -389 M376 -389 C389.43 -393.84, 403.04 -399.66, 423 -409 M376 -389 C393.69 -395.14, 410.33 -402.77, 423 -409 M423 -409 C434.84 -413.7, 446.98 -420.14, 470 -430 M423 -409 C436.61 -414.76, 449.88 -421.53, 470 -430" stroke="#1971c2" stroke-width="3" fill="none"/></g></g><mask/><g transform="translate(40 500) rotate(0 3.89306640625 8.75)"><text x="0" y="12.5302734375" font-family="Helvetica, Segoe UI Emoji" font-size="14px" fill="#555555" text-anchor="start" style="white-space: pre;" direction="ltr" dominant-baseline="alphabetic">0</text></g><g transform="translate(270 500) rotate(0 9.73095703125 8.75)"><text x="0" y="12.5302734375" font-family="Helvetica, Segoe UI Emoji" font-size="14px" fill="#555555" text-anchor="start" style="white-space: pre;" direction="ltr" dominant-baseline="alphabetic">0.5</text></g><g transform="translate(510 500) rotate(0 3.89306640625 8.75)"><text x="0" y="12.5302734375" font-family="Helvetica, Segoe UI Emoji" font-size="14px" fill="#555555" text-anchor="start" style="white-space: pre;" direction="ltr" dominant-baseline="alphabetic">1</text></g><g transform="translate(20 483) rotate(0 3.89306640625 8.75)"><text x="0" y="12.5302734375" font-family="Helvetica, Segoe UI Emoji" font-size="14px" fill="#555555" text-anchor="start" style="white-space: pre;" direction="ltr" dominant-baseline="alphabetic">0</text></g><g transform="translate(10 270) rotate(0 9.73095703125 8.75)"><text x="0" y="12.5302734375" font-family="Helvetica, Segoe UI Emoji" font-size="14px" fill="#555555" text-anchor="start" style="white-space: pre;" direction="ltr" dominant-baseline="alphabetic">0.5</text></g><g transform="translate(20 55) rotate(0 3.89306640625 8.75)"><text x="0" y="12.5302734375" font-family="Helvetica, Segoe UI Emoji" font-size="14px" fill="#555555" text-anchor="start" style="white-space: pre;" direction="ltr" dominant-baseline="alphabetic">1</text></g><g transform="translate(215 535) rotate(0 68.507080078125 9.375)"><text x="0" y="13.42529296875" font-family="Helvetica, Segoe UI Emoji" font-size="15px" fill="#1e1e1e" text-anchor="start" style="white-space: pre;" direction="ltr" dominant-baseline="alphabetic">Predicted probability</text></g><g transform="translate(-23.799239909245273 280.4506822161576) rotate(-90.0002104591497 73.67431640625 9.375)"><text x="0" y="13.42529296875" font-family="Helvetica, Segoe UI Emoji" font-size="15px" fill="#1e1e1e" text-anchor="start" style="white-space: pre;" direction="ltr" dominant-baseline="alphabetic">Empirical positive rate</text></g><g stroke-linecap="round" transform="translate(555 100) rotate(0 120 65)"><path d="M0 0 C71.21 0.39, 143.06 1.65, 240 0 M0 0 C71.59 -2.17, 141.28 -1.25, 240 0 M240 0 C240.07 47.43, 241.75 94.39, 240 130 M240 0 C241.49 27.8, 241.06 56.91, 240 130 M240 130 C161.44 130.68, 83.21 131.44, 0 130 M240 130 C179.82 129.53, 120.41 129.09, 0 130 M0 130 C0.42 78.55, 2.7 27.96, 0 0 M0 130 C-0.49 92.32, -1.09 53.71, 0 0" stroke="#888888" stroke-width="1" fill="none"/></g><g transform="translate(610 110) rotate(0 58.3740234375 9.375)"><text x="0" y="13.42529296875" font-family="Helvetica, Segoe UI Emoji" font-size="15px" fill="#1e1e1e" text-anchor="start" style="white-space: pre;" direction="ltr" dominant-baseline="alphabetic">Calibration shape</text></g><g stroke-linecap="round"><g transform="translate(570 155) rotate(0 22.5 0)"><path d="M0 0 C12.32 0.59, 26.98 -0.46, 45 0" stroke="#888888" stroke-width="2.5" fill="none" stroke-dasharray="8 10"/></g></g><mask/><g transform="translate(625 145) rotate(0 56.16748046875 8.75)"><text x="0" y="12.5302734375" font-family="Helvetica, Segoe UI Emoji" font-size="14px" fill="#1e1e1e" text-anchor="start" style="white-space: pre;" direction="ltr" dominant-baseline="alphabetic">Perfect calibration</text></g><g stroke-linecap="round"><g transform="translate(570 185) rotate(0 22.5 0)"><path d="M0 0 C13.17 -0.54, 26.66 0.62, 45 0 M0 0 C17.01 0.18, 34.64 0.18, 45 0" stroke="#c92a2a" stroke-width="3" fill="none"/></g></g><mask/><g transform="translate(625 175) rotate(0 46.01953125 8.75)"><text x="0" y="12.5302734375" font-family="Helvetica, Segoe UI Emoji" font-size="14px" fill="#1e1e1e" text-anchor="start" style="white-space: pre;" direction="ltr" dominant-baseline="alphabetic">Over-confident</text></g><g stroke-linecap="round"><g transform="translate(570 215) rotate(0 22.5 0)"><path d="M0 0 C14.03 0.34, 26.34 -0.31, 45 0 M0 0 C14.69 0.12, 29.37 0.34, 45 0" stroke="#1971c2" stroke-width="3" fill="none"/></g></g><mask/><g transform="translate(625 205) rotate(0 50.2236328125 8.75)"><text x="0" y="12.5302734375" font-family="Helvetica, Segoe UI Emoji" font-size="14px" fill="#1e1e1e" text-anchor="start" style="white-space: pre;" direction="ltr" dominant-baseline="alphabetic">Under-confident</text></g></svg>